<?xml version="1.0" encoding="utf-8"?>
<!-- Generator: Adobe Illustrator 19.2.0, SVG Export Plug-In . SVG Version: 6.00 Build 0)  -->
<svg version="1.1" id="Layer_1" xmlns="http://www.w3.org/2000/svg" xmlns:xlink="http://www.w3.org/1999/xlink" x="0px" y="0px"
	 viewBox="0 0 2295.2 450" style="enable-background:new 0 0 2295.2 450;" xml:space="preserve">
<style type="text/css">
	.st0{enable-background:new    ;}
	.st1{fill:#FFFFFF;}
</style>
<g class="st0">
	<path class="st1" d="M334.5,74.1c-18.2,13.1-39.4,18.5-63.8,16.4l-6.5-0.5v239.8c38.2-12,69.2-36.2,93.2-72.5l2.7,1.6
		c-17.8,63.6-51.8,101.8-101.9,114.5c-14.2,3.6-29.1,5.5-44.7,5.5c-61.4,0-107.6-21.8-138.5-65.4c-17.8-24.7-26.7-52.5-26.7-83.4
		c0-12.3,2-26.2,6-41.4c6.5-25.1,18.2-47.6,34.9-67.6c6.2-8,14-16.3,23.4-24.8c9.4-8.5,20.3-17.5,32.7-27l-33.3-1.6
		c-16.7-0.7-32,2.7-45.8,10.4c-12,6.9-25.1,20.2-39.2,39.8h-2.2C35.8,50.8,79.6,17.4,156.2,17.4c25.4,0,47.6,2.4,66.5,7.1
		c10.2,2.9,23.8,6.7,40.9,11.4c16.4,4.7,30.5,7.1,42.5,7.1c23.6,0,41.2-9.6,52.9-28.9l3.3,0.5C362.3,40.8,353,60.6,334.5,74.1z
		 M163.3,73l-8.2-2.2c-36.3,38.5-54.5,80.7-54.5,126.5c0,38.5,14.9,72.1,44.7,100.8c12-11.3,18-26.2,18-44.7V73z M252.2,89.3
		l-35.4-7.1v111.2c0,25.1-5.1,46.2-15.3,63.2c-7.3,12.7-22,29.3-44.2,49.6c24.3,18.2,53.6,27.3,87.8,27.3l7.1-1.6V89.3z"/>
	<path class="st1" d="M555.3,376.6c-22.9-15.6-34.3-34.9-34.3-57.8l-78,55.6c-22.9-14.5-34.3-35.6-34.3-63.2V167.3l-9.8-9.3
		l-12.5,7.6l-5.5-6l52.3-40.3l41.4,32.2l-16.4,13.1v145c0,10.5,6.5,19.3,19.6,26.2l44.2-31.6V167.3l-13.1-16.4l38.7-32.2l40.3,32.2
		l-15.8,13.6v155.4c0,5.8,5.5,11.6,16.4,17.4l9.8-6.5l5.5,5.5L555.3,376.6z"/>
	<path class="st1" d="M701.3,375c-17.1-14.9-42.9-28.7-77.4-41.4c9.4-10.5,14.2-23.6,14.2-39.2V76.8c0-10.5-6-22.2-18-34.9
		c13.4,3.3,25.4,9.1,36,17.4l6-0.5c16.7-15.6,35.4-24.9,56.1-27.8c-17.8,13.1-26.7,29.6-26.7,49.6v229.5l39.8,25.1l13.1-9.8l6.5,7.1
		L701.3,375z"/>
	<path class="st1" d="M846.9,375c-17.1-14.9-42.9-28.7-77.4-41.4c9.4-10.5,14.2-23.6,14.2-39.2V76.8c0-10.5-6-22.2-18-34.9
		c13.4,3.3,25.4,9.1,36,17.4l6-0.5c16.7-15.6,35.4-24.9,56.1-27.8c-17.8,13.1-26.7,29.6-26.7,49.6v229.5l39.8,25.1l13.1-9.8l6.5,7.1
		L846.9,375z"/>
	<path class="st1" d="M979.3,260.5v56.7l45.8,20.2l36-22.9l6,6.5c-4.7,2.9-9.5,6-14.4,9.3c-4.9,3.3-10.1,6.9-15.5,10.9l-47.4,33.3
		c-24.4-13.4-49.4-22.5-75.2-27.3c10.2-10.5,15.3-23.8,15.3-39.8V161.8c12.7-5.8,25.2-12.4,37.3-19.6c12.2-7.3,24.3-15.1,36.2-23.4
		l70.3,70.3C1033.7,217.1,1002.2,240.9,979.3,260.5z M978.8,154.2V248l51.8-40.9L978.8,154.2z"/>
	<path class="st1" d="M1251.3,346.1c-2.5,1.8-6.5,5-11.7,9.5c-5.3,4.5-11.9,10.5-19.9,17.7c-10.5-4.4-25.8-11.4-45.8-21.3l-1.6,19.6
		c-1.1,11.6,0.5,24,4.9,37.1c2.9,9.4,9.8,21.6,20.7,36.5c-15.6-2.2-28-7.3-37.1-15.3c-1.5-0.7-3.6-2.7-6.5-6
		c-2.9-3.3-6.9-7.6-12-13.1c-4,3.6-7.6,6.6-10.9,9c-3.3,2.4-5.8,4.3-7.6,5.7c-7.3,4.4-14.4,7.1-21.3,8.2
		c14.5-17.4,21.4-36.9,20.7-58.3l-1.1-36c-4-1.4-9.3-2.2-15.8-2.2h-12v-15.8c5.8-2.5,15.4-5.8,28.9-9.8V187.5
		c0-16.4-4.2-27.1-12.5-32.2l-13.1,8.2l-6-4.4l45.8-40.9c21.8,11.6,34.3,29.4,37.6,53.4l56.1-52.9c36.3,12.4,54.5,40.2,54.5,83.4
		v121C1275.1,329.4,1263.7,337,1251.3,346.1z M1237.2,189.6c0-2.9-1-5.9-3-9c-2-3.1-4.5-6.1-7.4-9c-2.9-2.9-6.2-5.5-9.8-7.6
		c-3.6-2.2-7.1-3.8-10.4-4.9l-32.7,28.9v124.8c11.3,2.9,22.1,6,32.4,9.3c10.4,3.3,20.6,6.7,30.8,10.4V189.6z"/>
	<path class="st1" d="M1404.5,376.6c-28.7-21.1-61.4-35.4-98.1-43.1c9.8-8,14.7-22,14.7-42V162.4c29.1-8,54.9-22.5,77.4-43.6
		c34.2,22.2,63,34.9,86.7,38.2v177.7C1453.2,344.1,1426.3,358.1,1404.5,376.6z M1434,183.7l-62.7-24v150.4
		c6.2,2.5,12.4,5.1,18.8,7.6c6.4,2.5,13,5.1,19.9,7.6c9.4,3.6,17.4,6.4,24,8.2V183.7z"/>
	<path class="st1" d="M1701.1,138.4l-49.6,67l51.2,31.6v100.3c-12.4,4-24.2,9.5-35.4,16.4c-2.9,1.8-7.1,4.5-12.5,7.9
		c-5.5,3.5-12,7.7-19.6,12.8c-18.9-9.4-37.3-14.2-55.1-14.2c-17.1,0-35.4,4.2-55.1,12.5l-7.1-4.9l64.9-92.7l-52.3-28.9v-83.9
		c24.3-10.9,46.7-26,67-45.2c30.5,14.9,53.8,22.3,69.8,22.3l14.2-1.6c5.1,0,9.8-1.9,14.2-5.7c4.4-3.8,6.5-8.3,6.5-13.4
		c0-3.6-4-10.5-12-20.7l-2.7-4.9c0-5.8,4.4-8.7,13.1-8.7c10.9,0,16.4,6.7,16.4,20.2C1716.9,112.6,1711.6,123.9,1701.1,138.4z
		 M1623.1,243.1l-60.5,78.5c9.8-2.2,21.6-3.3,35.4-3.3c18.9,0,38.5,4.9,58.9,14.7l0.5-72.5L1623.1,243.1z M1649.8,171.1
		c-5.1,0.4-10.5,0.5-16.4,0.5c-16.7,0-34.9-4-54.5-12l-0.5,62.7l32.7,16.9l52.9-69.8C1659.6,170.2,1654.9,170.8,1649.8,171.1z"/>
	<path class="st1" d="M1805.7,154.2v158.6l28.9,24l15.3-12l6,7.6l-49.1,42.5c-25.8-20.7-48.7-34.5-68.7-41.4
		c9.8-10.2,14.7-23.3,14.7-39.2V153.7h-19.1l0.5-7.6l70.9-88.9l0.5,69.2h55.6v27.8H1805.7z"/>
	<path class="st1" d="M1945.8,260.5v56.7l45.8,20.2l36-22.9l6,6.5c-4.7,2.9-9.5,6-14.4,9.3c-4.9,3.3-10.1,6.9-15.5,10.9l-47.4,33.3
		c-24.4-13.4-49.4-22.5-75.2-27.3c10.2-10.5,15.3-23.8,15.3-39.8V161.8c12.7-5.8,25.2-12.4,37.3-19.6c12.2-7.3,24.3-15.1,36.2-23.4
		l70.3,70.3C2000.1,217.1,1968.7,240.9,1945.8,260.5z M1945.3,154.2V248l51.8-40.9L1945.3,154.2z"/>
	<path class="st1" d="M2230.9,376.6c-13.1-8.4-21.9-17.3-26.4-26.7c-4.5-9.4-6.8-22.3-6.8-38.7V180.9l-24.5-21.3l-38.7,28.3v135.2
		l14.7,18.5l-39.2,34.9l-41.4-34.9l15.3-16.9V184.7c0-9.4-4.4-17.8-13.1-25.1l-8.7,6l-5.5-6l44.7-40.9
		c22.9,13.8,34.3,32.9,34.3,57.2c15.3-11.3,28.7-21.6,40.3-31.1c11.6-9.4,21.4-17.8,29.4-25.1l37.6,34.9l23.4-18.5l5.5,6
		c-4,5.1-8,10.5-12,16.4c-4,5.8-8,11.8-12,18v143.4c2.5,6.5,7.6,12.4,15.3,17.4l11.4-6.5l5.5,5.5L2230.9,376.6z"/>
</g>
</svg>
